<svg style="position: absolute; width: 0; height: 0;" width="0" height="0" version="1.1" xmlns="http://www.w3.org/2000/svg" xmlns:xlink="http://www.w3.org/1999/xlink">
<defs>
<symbol id="icon-home3" viewBox="0 0 1024 1024" style="fill: #eee;">
<title>home3</title>
<path class="path1" d="M1024 608l-192-192v-288h-128v160l-192-192-512 512v32h128v320h320v-192h128v192h320v-320h128z"></path>
</symbol>
<symbol id="icon-pencil" viewBox="0 0 1024 1024" style="fill: #43799f;">
<title>pencil</title>
<path class="path1" d="M864 0c88.364 0 160 71.634 160 160 0 36.020-11.91 69.258-32 96l-64 64-224-224 64-64c26.742-20.090 59.978-32 96-32zM64 736l-64 288 288-64 592-592-224-224-592 592zM715.578 363.578l-448 448-55.156-55.156 448-448 55.156 55.156z"></path>
</symbol>
<symbol id="icon-lock" viewBox="0 0 1024 1024" style="fill: #43799f;">
<title>lock</title>
<path class="path1" d="M592 448h-16v-192c0-105.87-86.13-192-192-192h-128c-105.87 0-192 86.13-192 192v192h-16c-26.4 0-48 21.6-48 48v480c0 26.4 21.6 48 48 48h544c26.4 0 48-21.6 48-48v-480c0-26.4-21.6-48-48-48zM192 256c0-35.29 28.71-64 64-64h128c35.29 0 64 28.71 64 64v192h-256v-192z"></path>
</symbol>
<symbol id="icon-unlocked" viewBox="0 0 1024 1024" style="fill: #43799f;">
<title>unlocked</title>
<path class="path1" d="M768 64c105.87 0 192 86.13 192 192v192h-128v-192c0-35.29-28.71-64-64-64h-128c-35.29 0-64 28.71-64 64v192h16c26.4 0 48 21.6 48 48v480c0 26.4-21.6 48-48 48h-544c-26.4 0-48-21.6-48-48v-480c0-26.4 21.6-48 48-48h400v-192c0-105.87 86.13-192 192-192h128z"></path>
</symbol>
<symbol id="icon-bin" viewBox="0 0 1024 1024" style="fill: #43799f;">
<title>bin</title>
<path class="path1" d="M128 320v640c0 35.2 28.8 64 64 64h576c35.2 0 64-28.8 64-64v-640h-704zM320 896h-64v-448h64v448zM448 896h-64v-448h64v448zM576 896h-64v-448h64v448zM704 896h-64v-448h64v448z"></path>
<path class="path2" d="M848 128h-208v-80c0-26.4-21.6-48-48-48h-224c-26.4 0-48 21.6-48 48v80h-208c-26.4 0-48 21.6-48 48v80h832v-80c0-26.4-21.6-48-48-48zM576 128h-192v-63.198h192v63.198z"></path>
</symbol>
<symbol id="icon-menu" viewBox="0 0 16 16" style="fill: #fff;">
<title>menu</title>
<path class="path1" d="M1 3h14v3h-14zM1 7h14v3h-14zM1 11h14v3h-14z"></path>
</symbol>
</defs>
</svg>
